<svg width="18" height="18" viewBox="0 0 18 18" fill="none" xmlns="http://www.w3.org/2000/svg">
<path fill-rule="evenodd" clip-rule="evenodd" d="M16.3125 9C16.3125 10.9394 15.5421 12.7994 14.1707 14.1707C12.7994 15.5421 10.9394 16.3125 9 16.3125C7.0606 16.3125 5.20064 15.5421 3.82928 14.1707C2.45792 12.7994 1.6875 10.9394 1.6875 9C1.6875 7.0606 2.45792 5.20064 3.82928 3.82928C5.20064 2.45792 7.0606 1.6875 9 1.6875C10.9394 1.6875 12.7994 2.45792 14.1707 3.82928C15.5421 5.20064 16.3125 7.0606 16.3125 9ZM18 9C18 11.3869 17.0518 13.6761 15.364 15.364C13.6761 17.0518 11.3869 18 9 18C6.61305 18 4.32387 17.0518 2.63604 15.364C0.948212 13.6761 0 11.3869 0 9C0 6.61305 0.948212 4.32387 2.63604 2.63604C4.32387 0.948212 6.61305 0 9 0C11.3869 0 13.6761 0.948212 15.364 2.63604C17.0518 4.32387 18 6.61305 18 9ZM5.94 4.7475C5.78005 4.59846 5.5685 4.51732 5.34991 4.52118C5.13132 4.52503 4.92276 4.61359 4.76818 4.76818C4.61359 4.92276 4.52503 5.13132 4.52118 5.34991C4.51732 5.5685 4.59846 5.78005 4.7475 5.94L12.06 13.2525C12.1372 13.3354 12.2304 13.4019 12.3339 13.448C12.4374 13.4941 12.5491 13.5189 12.6624 13.5209C12.7757 13.5229 12.8882 13.5021 12.9933 13.4596C13.0984 13.4172 13.1938 13.354 13.2739 13.2739C13.354 13.1938 13.4172 13.0984 13.4596 12.9933C13.5021 12.8882 13.5229 12.7757 13.5209 12.6624C13.5189 12.5491 13.4941 12.4374 13.448 12.3339C13.4019 12.2304 13.3354 12.1372 13.2525 12.06L5.94 4.7475Z" fill="#5D5D5D"/>
</svg>
