<svg width="29" height="29" viewBox="0 0 29 29" fill="none" xmlns="http://www.w3.org/2000/svg">
<path d="M12.47 17.11L9.31625 13.9562C9.05042 13.6904 8.71788 13.5633 8.31865 13.5749C7.91942 13.5865 7.58737 13.7257 7.3225 13.9925C7.05667 14.2583 6.92375 14.5967 6.92375 15.0075C6.92375 15.4183 7.05667 15.7567 7.3225 16.0225L11.455 20.155C11.7208 20.4208 12.0592 20.5537 12.47 20.5537C12.8808 20.5537 13.2192 20.4208 13.485 20.155L21.7137 11.9262C21.9796 11.6604 22.1067 11.3279 22.0951 10.9286C22.0835 10.5294 21.9443 10.1974 21.6775 9.9325C21.4117 9.66667 21.0733 9.53375 20.6625 9.53375C20.2517 9.53375 19.9133 9.66667 19.6475 9.9325L12.47 17.11ZM14.5 29C12.4942 29 10.6092 28.6191 8.845 27.8574C7.08083 27.0957 5.54625 26.0628 4.24125 24.7587C2.93625 23.4537 1.90337 21.9192 1.1426 20.155C0.381833 18.3908 0.000966667 16.5058 0 14.5C0 12.4942 0.380867 10.6092 1.1426 8.845C1.90433 7.08083 2.93722 5.54625 4.24125 4.24125C5.54625 2.93625 7.08083 1.90337 8.845 1.1426C10.6092 0.381833 12.4942 0.000966667 14.5 0C16.5058 0 18.3908 0.380867 20.155 1.1426C21.9192 1.90433 23.4537 2.93722 24.7587 4.24125C26.0637 5.54625 27.0971 7.08083 27.8588 8.845C28.6206 10.6092 29.001 12.4942 29 14.5C29 16.5058 28.6191 18.3908 27.8574 20.155C27.0957 21.9192 26.0628 23.4537 24.7587 24.7587C23.4537 26.0637 21.9192 27.0971 20.155 27.8588C18.3908 28.6206 16.5058 29.001 14.5 29ZM14.5 26.1C17.7142 26.1 20.4513 24.9704 22.7113 22.7113C24.9714 20.4522 26.101 17.7151 26.1 14.5C26.1 11.2858 24.9704 8.54872 22.7113 6.28865C20.4522 4.02858 17.7151 2.89903 14.5 2.9C11.2858 2.9 8.54872 4.02955 6.28865 6.28865C4.02858 8.54775 2.89903 11.2849 2.9 14.5C2.9 17.7142 4.02955 20.4513 6.28865 22.7113C8.54775 24.9714 11.2849 26.101 14.5 26.1Z" fill="#05F2DB"/>
</svg>
