<svg width="106" height="106" viewBox="0 0 106 106" fill="none" xmlns="http://www.w3.org/2000/svg">
<path d="M45.58 62.54L34.0525 51.0125C33.0808 50.0408 31.8654 49.5762 30.4061 49.6186C28.9468 49.661 27.7331 50.1698 26.765 51.145C25.7933 52.1167 25.3075 53.3533 25.3075 54.855C25.3075 56.3567 25.7933 57.5933 26.765 58.565L41.87 73.67C42.8417 74.6417 44.0783 75.1275 45.58 75.1275C47.0817 75.1275 48.3183 74.6417 49.29 73.67L79.3675 43.5925C80.3392 42.6208 80.8038 41.4054 80.7614 39.9461C80.719 38.4868 80.2102 37.2731 79.235 36.305C78.2633 35.3333 77.0267 34.8475 75.525 34.8475C74.0233 34.8475 72.7867 35.3333 71.815 36.305L45.58 62.54ZM53 106C45.6683 106 38.7783 104.608 32.33 101.824C25.8817 99.0393 20.2725 95.264 15.5025 90.4975C10.7325 85.7275 6.95713 80.1183 4.1764 73.67C1.39567 67.2217 0.00353333 60.3317 0 53C0 45.6683 1.39213 38.7783 4.1764 32.33C6.96067 25.8817 10.736 20.2725 15.5025 15.5025C20.2725 10.7325 25.8817 6.95713 32.33 4.1764C38.7783 1.39567 45.6683 0.00353333 53 0C60.3317 0 67.2217 1.39213 73.67 4.1764C80.1183 6.96067 85.7275 10.736 90.4975 15.5025C95.2675 20.2725 99.0446 25.8817 101.829 32.33C104.613 38.7783 106.004 45.6683 106 53C106 60.3317 104.608 67.2217 101.824 73.67C99.0393 80.1183 95.264 85.7275 90.4975 90.4975C85.7275 95.2675 80.1183 99.0446 73.67 101.829C67.2217 104.613 60.3317 106.004 53 106ZM53 95.4C64.7483 95.4 74.753 91.2713 83.0139 83.0139C91.2748 74.7565 95.4035 64.7519 95.4 53C95.4 41.2517 91.2713 31.247 83.0139 22.9861C74.7565 14.7252 64.7519 10.5965 53 10.6C41.2517 10.6 31.247 14.7287 22.9861 22.9861C14.7252 31.2435 10.5965 41.2481 10.6 53C10.6 64.7483 14.7287 74.753 22.9861 83.0139C31.2435 91.2748 41.2481 95.4035 53 95.4Z" fill="#05F2DB"/>
</svg>
