<svg width="19" height="21" viewBox="0 0 19 21" fill="none" xmlns="http://www.w3.org/2000/svg">
<path d="M14 21C12.6167 21 11.4377 20.5127 10.463 19.538C9.48767 18.5627 9 17.3833 9 16C9 14.6167 9.48767 13.4373 10.463 12.462C11.4377 11.4873 12.6167 11 14 11C15.3833 11 16.5627 11.4873 17.538 12.462C18.5127 13.4373 19 14.6167 19 16C19 17.3833 18.5127 18.5627 17.538 19.538C16.5627 20.5127 15.3833 21 14 21ZM15.675 18.375L16.375 17.675L14.5 15.8V13H13.5V16.2L15.675 18.375ZM0 20V2H6.175C6.35833 1.41667 6.71667 0.937333 7.25 0.562C7.78333 0.187333 8.36667 0 9 0C9.66667 0 10.2627 0.187333 10.788 0.562C11.3127 0.937333 11.6667 1.41667 11.85 2H18V10.25C17.7 10.0333 17.3833 9.85 17.05 9.7C16.7167 9.55 16.3667 9.41667 16 9.3V4H14V7H4V4H2V18H7.3C7.41667 18.3667 7.55 18.7167 7.7 19.05C7.85 19.3833 8.03333 19.7 8.25 20H0ZM9 4C9.28333 4 9.521 3.904 9.713 3.712C9.90433 3.52067 10 3.28333 10 3C10 2.71667 9.90433 2.479 9.713 2.287C9.521 2.09567 9.28333 2 9 2C8.71667 2 8.47933 2.09567 8.288 2.287C8.096 2.479 8 2.71667 8 3C8 3.28333 8.096 3.52067 8.288 3.712C8.47933 3.904 8.71667 4 9 4Z" fill="#5D5D5D"/>
</svg>
