<svg width="16" height="16" viewBox="0 0 16 16" fill="none" xmlns="http://www.w3.org/2000/svg">
<path d="M6.88 9.44L5.14 7.7C4.99333 7.55333 4.80987 7.4832 4.5896 7.4896C4.36933 7.496 4.18613 7.5728 4.04 7.72C3.89333 7.86667 3.82 8.05333 3.82 8.28C3.82 8.50667 3.89333 8.69333 4.04 8.84L6.32 11.12C6.46667 11.2667 6.65333 11.34 6.88 11.34C7.10667 11.34 7.29333 11.2667 7.44 11.12L11.98 6.58C12.1267 6.43333 12.1968 6.24987 12.1904 6.0296C12.184 5.80933 12.1072 5.62613 11.96 5.48C11.8133 5.33333 11.6267 5.26 11.4 5.26C11.1733 5.26 10.9867 5.33333 10.84 5.48L6.88 9.44ZM8 16C6.89333 16 5.85333 15.7899 4.88 15.3696C3.90667 14.9493 3.06 14.3795 2.34 13.66C1.62 12.94 1.05013 12.0933 0.6304 11.12C0.210667 10.1467 0.000533333 9.10667 0 8C0 6.89333 0.210133 5.85333 0.6304 4.88C1.05067 3.90667 1.62053 3.06 2.34 2.34C3.06 1.62 3.90667 1.05013 4.88 0.6304C5.85333 0.210667 6.89333 0.000533333 8 0C9.10667 0 10.1467 0.210133 11.12 0.6304C12.0933 1.05067 12.94 1.62053 13.66 2.34C14.38 3.06 14.9501 3.90667 15.3704 4.88C15.7907 5.85333 16.0005 6.89333 16 8C16 9.10667 15.7899 10.1467 15.3696 11.12C14.9493 12.0933 14.3795 12.94 13.66 13.66C12.94 14.38 12.0933 14.9501 11.12 15.3704C10.1467 15.7907 9.10667 16.0005 8 16ZM8 14.4C9.77333 14.4 11.2835 13.7768 12.5304 12.5304C13.7773 11.284 14.4005 9.77387 14.4 8C14.4 6.22667 13.7768 4.71653 12.5304 3.4696C11.284 2.22267 9.77387 1.59947 8 1.6C6.22667 1.6 4.71653 2.2232 3.4696 3.4696C2.22267 4.716 1.59947 6.22613 1.6 8C1.6 9.77333 2.2232 11.2835 3.4696 12.5304C4.716 13.7773 6.22613 14.4005 8 14.4Z" fill="#05F2DB"/>
</svg>
