<?xml version="1.0" encoding="utf-8"?>
<!-- Generator: Adobe Illustrator 26.2.1, SVG Export Plug-In . SVG Version: 6.00 Build 0)  -->
<svg version="1.1" id="Layer_1" xmlns="http://www.w3.org/2000/svg" xmlns:xlink="http://www.w3.org/1999/xlink" x="0px" y="0px"
	 viewBox="0 0 1920 1080" style="enable-background:new 0 0 1920 1080;" xml:space="preserve">
<style type="text/css">
	.st0{fill:#51E5B4;}
	.st1{fill:#3F3F3F;}
	.st2{font-family:'MyriadPro-Regular';}
	.st3{font-size:24px;}
	.st4{fill:#7CEAFC;}
	.st5{fill:#64F9B2;}
	.st6{font-size:18px;}
	.st7{fill:#FF8366;}
	.st8{fill:#B4F766;}
	.st9{fill:#F7E60F;}
	.st10{font-size:12px;}
	.st11{fill:#F2FF55;}
	.st12{fill:#EEA9FF;}
	.st13{fill:#95FF50;}
	.st14{fill:#FF9E6E;}
	.st15{fill:#FF5A39;}
	.st16{fill:#FFA6C8;}
	.st17{fill:#31F5FF;}
	.st18{fill:#15FFBC;}
	.st19{fill:#F9BB7D;}
	.st20{fill:none;stroke:#6CA4FF;stroke-miterlimit:10;}
	.st21{fill:#6CA4FF;}
	.st22{fill:none;stroke:#6CA4FF;stroke-width:0.8341;stroke-miterlimit:10;}
	.st23{fill:none;stroke:#6CA4FF;stroke-width:0.6236;stroke-miterlimit:10;}
	.st24{fill:none;stroke:#6CA4FF;stroke-width:0.6874;stroke-miterlimit:10;}
	.st25{fill:none;stroke:#6CA4FF;stroke-width:0.7722;stroke-miterlimit:10;}
	.st26{fill:none;stroke:#6CA4FF;stroke-width:0.7361;stroke-miterlimit:10;}
	.st27{fill:none;stroke:#6CA4FF;stroke-width:0.6441;stroke-miterlimit:10;}
	.st28{fill:none;stroke:#6CA4FF;stroke-width:0.7127;stroke-miterlimit:10;}
	.st29{fill:none;stroke:#6CA4FF;stroke-width:0.9672;stroke-miterlimit:10;}
	.st30{fill:none;stroke:#6CA4FF;stroke-width:0.7767;stroke-miterlimit:10;}
</style>
<g>
	<g>
		<path class="st0" d="M215.6,592.9c-5.9,0-11.4-2.3-15.6-6.4L167.5,554c-8.6-8.6-8.6-22.6,0-31.1l32.5-32.5
			c4.2-4.2,9.7-6.4,15.6-6.4s11.4,2.3,15.6,6.4l32.5,32.5c8.6,8.6,8.6,22.6,0,31.1l-32.5,32.5C227,590.6,221.4,592.9,215.6,592.9z"
			/>
		<path class="st0" d="M215.6,484.4c5.7,0,11.2,2.2,15.2,6.3l32.5,32.5c8.4,8.4,8.4,22,0,30.4l-32.5,32.5c-4.1,4.1-9.5,6.3-15.2,6.3
			s-11.2-2.2-15.2-6.3l-32.5-32.5c-8.4-8.4-8.4-22,0-30.4l32.5-32.5C204.4,486.6,209.8,484.4,215.6,484.4 M215.6,483.4
			c-5.8,0-11.5,2.2-15.9,6.6l-32.5,32.5c-8.8,8.8-8.8,23.1,0,31.8l32.5,32.5c4.4,4.4,10.2,6.6,15.9,6.6s11.5-2.2,15.9-6.6l32.5-32.5
			c8.8-8.8,8.8-23.1,0-31.8L231.5,490C227.1,485.6,221.3,483.4,215.6,483.4L215.6,483.4z"/>
	</g>
	<text transform="matrix(1 0 0 1 174.5737 545.4559)" class="st1 st2 st3">Loading</text>
	<g>
		<g>
			<path class="st4" d="M469.6,510.9c-5.9,0-11.4-2.3-15.6-6.4L421.5,472c-8.6-8.6-8.6-22.6,0-31.1l32.5-32.5
				c4.2-4.2,9.7-6.4,15.6-6.4s11.4,2.3,15.6,6.4l32.5,32.5c8.6,8.6,8.6,22.6,0,31.1l-32.5,32.5C481,508.6,475.4,510.9,469.6,510.9z"
				/>
			<path class="st4" d="M469.6,402.4c5.7,0,11.2,2.2,15.2,6.3l32.5,32.5c8.4,8.4,8.4,22,0,30.4l-32.5,32.5
				c-4.1,4.1-9.5,6.3-15.2,6.3s-11.2-2.2-15.2-6.3l-32.5-32.5c-8.4-8.4-8.4-22,0-30.4l32.5-32.5
				C458.4,404.6,463.8,402.4,469.6,402.4 M469.6,401.4c-5.8,0-11.5,2.2-15.9,6.6l-32.5,32.5c-8.8,8.8-8.8,23.1,0,31.8l32.5,32.5
				c4.4,4.4,10.2,6.6,15.9,6.6s11.5-2.2,15.9-6.6l32.5-32.5c8.8-8.8,8.8-23.1,0-31.8L485.5,408C481.1,403.6,475.3,401.4,469.6,401.4
				L469.6,401.4z"/>
		</g>
		<text transform="matrix(1 0 0 1 438.582 463.4559)" class="st1 st2 st3">Log in</text>
	</g>
	<g>
		<g>
			<path class="st4" d="M1646.6,490.9c-5.9,0-11.4-2.3-15.6-6.4l-32.5-32.5c-8.6-8.6-8.6-22.6,0-31.1l32.5-32.5
				c4.2-4.2,9.7-6.4,15.6-6.4s11.4,2.3,15.6,6.4l32.5,32.5c8.6,8.6,8.6,22.6,0,31.1l-32.5,32.5
				C1658,488.6,1652.4,490.9,1646.6,490.9z"/>
			<path class="st4" d="M1646.6,382.4c5.7,0,11.2,2.2,15.2,6.3l32.5,32.5c8.4,8.4,8.4,22,0,30.4l-32.5,32.5
				c-4.1,4.1-9.5,6.3-15.2,6.3s-11.2-2.2-15.2-6.3l-32.5-32.5c-8.4-8.4-8.4-22,0-30.4l32.5-32.5
				C1635.4,384.6,1640.8,382.4,1646.6,382.4 M1646.6,381.4c-5.8,0-11.5,2.2-15.9,6.6l-32.5,32.5c-8.8,8.8-8.8,23.1,0,31.8l32.5,32.5
				c4.4,4.4,10.2,6.6,15.9,6.6s11.5-2.2,15.9-6.6l32.5-32.5c8.8-8.8,8.8-23.1,0-31.8l-32.5-32.5
				C1658.1,383.6,1652.3,381.4,1646.6,381.4L1646.6,381.4z"/>
		</g>
		<text transform="matrix(1 0 0 1 1614.5376 443.4559)" class="st1 st2 st3">Profle</text>
	</g>
	<g>
		<g>
			<path class="st5" d="M687.6,510.9c-5.9,0-11.4-2.3-15.6-6.4L639.5,472c-8.6-8.6-8.6-22.6,0-31.1l32.5-32.5
				c4.2-4.2,9.7-6.4,15.6-6.4s11.4,2.3,15.6,6.4l32.5,32.5c8.6,8.6,8.6,22.6,0,31.1l-32.5,32.5C699,508.6,693.4,510.9,687.6,510.9z"
				/>
			<path class="st5" d="M687.6,402.4c5.7,0,11.2,2.2,15.2,6.3l32.5,32.5c8.4,8.4,8.4,22,0,30.4l-32.5,32.5
				c-4.1,4.1-9.5,6.3-15.2,6.3s-11.2-2.2-15.2-6.3l-32.5-32.5c-8.4-8.4-8.4-22,0-30.4l32.5-32.5
				C676.4,404.6,681.8,402.4,687.6,402.4 M687.6,401.4c-5.8,0-11.5,2.2-15.9,6.6l-32.5,32.5c-8.8,8.8-8.8,23.1,0,31.8l32.5,32.5
				c4.4,4.4,10.2,6.6,15.9,6.6s11.5-2.2,15.9-6.6l32.5-32.5c8.8-8.8,8.8-23.1,0-31.8L703.5,408C699.1,403.6,693.3,401.4,687.6,401.4
				L687.6,401.4z"/>
		</g>
		<text transform="matrix(1 0 0 1 646.2437 463.4559)" class="st1 st2 st6">Dashboard</text>
	</g>
	<g>
		<g>
			<path class="st7" d="M796.6,619.9c-5.9,0-11.4-2.3-15.6-6.4L748.5,581c-8.6-8.6-8.6-22.6,0-31.1l32.5-32.5
				c4.2-4.2,9.7-6.4,15.6-6.4s11.4,2.3,15.6,6.4l32.5,32.5c8.6,8.6,8.6,22.6,0,31.1l-32.5,32.5C808,617.6,802.4,619.9,796.6,619.9z"
				/>
			<path class="st7" d="M796.6,511.4c5.7,0,11.2,2.2,15.2,6.3l32.5,32.5c8.4,8.4,8.4,22,0,30.4l-32.5,32.5
				c-4.1,4.1-9.5,6.3-15.2,6.3s-11.2-2.2-15.2-6.3l-32.5-32.5c-8.4-8.4-8.4-22,0-30.4l32.5-32.5
				C785.4,513.6,790.8,511.4,796.6,511.4 M796.6,510.4c-5.8,0-11.5,2.2-15.9,6.6l-32.5,32.5c-8.8,8.8-8.8,23.1,0,31.8l32.5,32.5
				c4.4,4.4,10.2,6.6,15.9,6.6s11.5-2.2,15.9-6.6l32.5-32.5c8.8-8.8,8.8-23.1,0-31.8L812.5,517C808.1,512.6,802.3,510.4,796.6,510.4
				L796.6,510.4z"/>
		</g>
		<text transform="matrix(1 0 0 1 742.6167 572.4559)" class="st1 st2 st6">Cancelled task</text>
	</g>
	<g>
		<g>
			<path class="st8" d="M796.6,401.9c-5.9,0-11.4-2.3-15.6-6.4L748.5,363c-8.6-8.6-8.6-22.6,0-31.1l32.5-32.5
				c4.2-4.2,9.7-6.4,15.6-6.4s11.4,2.3,15.6,6.4l32.5,32.5c8.6,8.6,8.6,22.6,0,31.1l-32.5,32.5C808,399.6,802.4,401.9,796.6,401.9z"
				/>
			<path class="st8" d="M796.6,293.4c5.7,0,11.2,2.2,15.2,6.3l32.5,32.5c8.4,8.4,8.4,22,0,30.4l-32.5,32.5
				c-4.1,4.1-9.5,6.3-15.2,6.3s-11.2-2.2-15.2-6.3l-32.5-32.5c-8.4-8.4-8.4-22,0-30.4l32.5-32.5
				C785.4,295.6,790.8,293.4,796.6,293.4 M796.6,292.4c-5.8,0-11.5,2.2-15.9,6.6l-32.5,32.5c-8.8,8.8-8.8,23.1,0,31.8l32.5,32.5
				c4.4,4.4,10.2,6.6,15.9,6.6s11.5-2.2,15.9-6.6l32.5-32.5c8.8-8.8,8.8-23.1,0-31.8L812.5,299C808.1,294.6,802.3,292.4,796.6,292.4
				L796.6,292.4z"/>
		</g>
		<text transform="matrix(1 0 0 1 776.3936 354.4559)" class="st1 st2 st6">Tasks</text>
	</g>
	<g>
		<g>
			<path class="st9" d="M1145.6,401.9c-5.9,0-11.4-2.3-15.6-6.4l-32.5-32.5c-8.6-8.6-8.6-22.6,0-31.1l32.5-32.5
				c4.2-4.2,9.7-6.4,15.6-6.4s11.4,2.3,15.6,6.4l32.5,32.5c8.6,8.6,8.6,22.6,0,31.1l-32.5,32.5
				C1157,399.6,1151.4,401.9,1145.6,401.9z"/>
			<path class="st9" d="M1145.6,293.4c5.7,0,11.2,2.2,15.2,6.3l32.5,32.5c8.4,8.4,8.4,22,0,30.4l-32.5,32.5
				c-4.1,4.1-9.5,6.3-15.2,6.3s-11.2-2.2-15.2-6.3l-32.5-32.5c-8.4-8.4-8.4-22,0-30.4l32.5-32.5
				C1134.4,295.6,1139.8,293.4,1145.6,293.4 M1145.6,292.4c-5.8,0-11.5,2.2-15.9,6.6l-32.5,32.5c-8.8,8.8-8.8,23.1,0,31.8l32.5,32.5
				c4.4,4.4,10.2,6.6,15.9,6.6s11.5-2.2,15.9-6.6l32.5-32.5c8.8-8.8,8.8-23.1,0-31.8l-32.5-32.5
				C1157.1,294.6,1151.3,292.4,1145.6,292.4L1145.6,292.4z"/>
		</g>
		<text transform="matrix(1 0 0 1 1116.1416 354.4559)" class="st1 st2 st10">Task Details</text>
	</g>
	<g>
		<g>
			<path class="st11" d="M1260.6,678.9c-5.9,0-11.4-2.3-15.6-6.4l-32.5-32.5c-8.6-8.6-8.6-22.6,0-31.1l32.5-32.5
				c4.2-4.2,9.7-6.4,15.6-6.4s11.4,2.3,15.6,6.4l32.5,32.5c8.6,8.6,8.6,22.6,0,31.1l-32.5,32.5
				C1272,676.6,1266.4,678.9,1260.6,678.9z"/>
			<path class="st11" d="M1260.6,570.4c5.7,0,11.2,2.2,15.2,6.3l32.5,32.5c8.4,8.4,8.4,22,0,30.4l-32.5,32.5
				c-4.1,4.1-9.5,6.3-15.2,6.3s-11.2-2.2-15.2-6.3l-32.5-32.5c-8.4-8.4-8.4-22,0-30.4l32.5-32.5
				C1249.4,572.6,1254.8,570.4,1260.6,570.4 M1260.6,569.4c-5.8,0-11.5,2.2-15.9,6.6l-32.5,32.5c-8.8,8.8-8.8,23.1,0,31.8l32.5,32.5
				c4.4,4.4,10.2,6.6,15.9,6.6s11.5-2.2,15.9-6.6l32.5-32.5c8.8-8.8,8.8-23.1,0-31.8l-32.5-32.5
				C1272.1,571.6,1266.3,569.4,1260.6,569.4L1260.6,569.4z"/>
		</g>
		<text transform="matrix(1 0 0 1 1234.5918 631.4559)" class="st1 st2 st10">Task Done</text>
	</g>
	<g>
		<g>
			<path class="st12" d="M1145.6,641.9c-5.9,0-11.4-2.3-15.6-6.4l-32.5-32.5c-8.6-8.6-8.6-22.6,0-31.1l32.5-32.5
				c4.2-4.2,9.7-6.4,15.6-6.4s11.4,2.3,15.6,6.4l32.5,32.5c8.6,8.6,8.6,22.6,0,31.1l-32.5,32.5
				C1157,639.6,1151.4,641.9,1145.6,641.9z"/>
			<path class="st12" d="M1145.6,533.4c5.7,0,11.2,2.2,15.2,6.3l32.5,32.5c8.4,8.4,8.4,22,0,30.4l-32.5,32.5
				c-4.1,4.1-9.5,6.3-15.2,6.3s-11.2-2.2-15.2-6.3l-32.5-32.5c-8.4-8.4-8.4-22,0-30.4l32.5-32.5
				C1134.4,535.6,1139.8,533.4,1145.6,533.4 M1145.6,532.4c-5.8,0-11.5,2.2-15.9,6.6l-32.5,32.5c-8.8,8.8-8.8,23.1,0,31.8l32.5,32.5
				c4.4,4.4,10.2,6.6,15.9,6.6s11.5-2.2,15.9-6.6l32.5-32.5c8.8-8.8,8.8-23.1,0-31.8l-32.5-32.5
				C1157.1,534.6,1151.3,532.4,1145.6,532.4L1145.6,532.4z"/>
		</g>
		<text transform="matrix(1 0 0 1 1108.0776 594.4559)" class="st1 st2 st10">Tasks in Queue</text>
	</g>
	<g>
		<g>
			<path class="st13" d="M1356.6,401.9c-5.9,0-11.4-2.3-15.6-6.4l-32.5-32.5c-8.6-8.6-8.6-22.6,0-31.1l32.5-32.5
				c4.2-4.2,9.7-6.4,15.6-6.4s11.4,2.3,15.6,6.4l32.5,32.5c8.6,8.6,8.6,22.6,0,31.1l-32.5,32.5
				C1368,399.6,1362.4,401.9,1356.6,401.9z"/>
			<path class="st13" d="M1356.6,293.4c5.7,0,11.2,2.2,15.2,6.3l32.5,32.5c8.4,8.4,8.4,22,0,30.4l-32.5,32.5
				c-4.1,4.1-9.5,6.3-15.2,6.3s-11.2-2.2-15.2-6.3l-32.5-32.5c-8.4-8.4-8.4-22,0-30.4l32.5-32.5
				C1345.4,295.6,1350.8,293.4,1356.6,293.4 M1356.6,292.4c-5.8,0-11.5,2.2-15.9,6.6l-32.5,32.5c-8.8,8.8-8.8,23.1,0,31.8l32.5,32.5
				c4.4,4.4,10.2,6.6,15.9,6.6s11.5-2.2,15.9-6.6l32.5-32.5c8.8-8.8,8.8-23.1,0-31.8l-32.5-32.5
				C1368.1,294.6,1362.3,292.4,1356.6,292.4L1356.6,292.4z"/>
		</g>
		<text transform="matrix(1 0 0 1 1325.6538 354.4559)" class="st1 st2 st10">Task Update</text>
	</g>
	<g>
		<g>
			<path class="st14" d="M1356.6,616.9c-5.9,0-11.4-2.3-15.6-6.4l-32.5-32.5c-8.6-8.6-8.6-22.6,0-31.1l32.5-32.5
				c4.2-4.2,9.7-6.4,15.6-6.4s11.4,2.3,15.6,6.4l32.5,32.5c8.6,8.6,8.6,22.6,0,31.1l-32.5,32.5
				C1368,614.6,1362.4,616.9,1356.6,616.9z"/>
			<path class="st14" d="M1356.6,508.4c5.7,0,11.2,2.2,15.2,6.3l32.5,32.5c8.4,8.4,8.4,22,0,30.4l-32.5,32.5
				c-4.1,4.1-9.5,6.3-15.2,6.3s-11.2-2.2-15.2-6.3l-32.5-32.5c-8.4-8.4-8.4-22,0-30.4l32.5-32.5
				C1345.4,510.6,1350.8,508.4,1356.6,508.4 M1356.6,507.4c-5.8,0-11.5,2.2-15.9,6.6l-32.5,32.5c-8.8,8.8-8.8,23.1,0,31.8l32.5,32.5
				c4.4,4.4,10.2,6.6,15.9,6.6s11.5-2.2,15.9-6.6l32.5-32.5c8.8-8.8,8.8-23.1,0-31.8l-32.5-32.5
				C1368.1,509.6,1362.3,507.4,1356.6,507.4L1356.6,507.4z"/>
		</g>
		<text transform="matrix(1 0 0 1 1319.438 569.4559)" class="st1 st2 st10">Profle  Update</text>
	</g>
	<g>
		<g>
			<path class="st15" d="M1446.1,491.4c-5.9,0-11.4-2.3-15.6-6.4l-32.5-32.5c-8.6-8.6-8.6-22.6,0-31.1l32.5-32.5
				c4.2-4.2,9.7-6.4,15.6-6.4s11.4,2.3,15.6,6.4l32.5,32.5c8.6,8.6,8.6,22.6,0,31.1l-32.5,32.5
				C1457.5,489.1,1451.9,491.4,1446.1,491.4z"/>
			<path class="st15" d="M1446.1,382.9c5.7,0,11.2,2.2,15.2,6.3l32.5,32.5c8.4,8.4,8.4,22,0,30.4l-32.5,32.5
				c-4.1,4.1-9.5,6.3-15.2,6.3s-11.2-2.2-15.2-6.3l-32.5-32.5c-8.4-8.4-8.4-22,0-30.4l32.5-32.5
				C1434.9,385.1,1440.3,382.9,1446.1,382.9 M1446.1,381.9c-5.8,0-11.5,2.2-15.9,6.6l-32.5,32.5c-8.8,8.8-8.8,23.1,0,31.8l32.5,32.5
				c4.4,4.4,10.2,6.6,15.9,6.6s11.5-2.2,15.9-6.6l32.5-32.5c8.8-8.8,8.8-23.1,0-31.8l-32.5-32.5
				C1457.6,384.1,1451.8,381.9,1446.1,381.9L1446.1,381.9z"/>
		</g>
		<text transform="matrix(1 0 0 1 1417.3018 443.9559)" class="st1 st2 st10">Task Delete</text>
	</g>
	<g>
		<g>
			<path class="st16" d="M1550.1,610.4c-5.9,0-11.4-2.3-15.6-6.4l-32.5-32.5c-8.6-8.6-8.6-22.6,0-31.1l32.5-32.5
				c4.2-4.2,9.7-6.4,15.6-6.4s11.4,2.3,15.6,6.4l32.5,32.5c8.6,8.6,8.6,22.6,0,31.1l-32.5,32.5
				C1561.5,608.1,1555.9,610.4,1550.1,610.4z"/>
			<path class="st16" d="M1550.1,501.9c5.7,0,11.2,2.2,15.2,6.3l32.5,32.5c8.4,8.4,8.4,22,0,30.4l-32.5,32.5
				c-4.1,4.1-9.5,6.3-15.2,6.3s-11.2-2.2-15.2-6.3l-32.5-32.5c-8.4-8.4-8.4-22,0-30.4l32.5-32.5
				C1538.9,504.1,1544.3,501.9,1550.1,501.9 M1550.1,500.9c-5.8,0-11.5,2.2-15.9,6.6l-32.5,32.5c-8.8,8.8-8.8,23.1,0,31.8l32.5,32.5
				c4.4,4.4,10.2,6.6,15.9,6.6s11.5-2.2,15.9-6.6l32.5-32.5c8.8-8.8,8.8-23.1,0-31.8l-32.5-32.5
				C1561.6,503.1,1555.8,500.9,1550.1,500.9L1550.1,500.9z"/>
		</g>
		<text transform="matrix(1 0 0 1 1530.7158 562.9559)" class="st1 st2 st10"> Logout</text>
	</g>
	<g>
		<g>
			<path class="st17" d="M905.6,510.9c-5.9,0-11.4-2.3-15.6-6.4L857.5,472c-8.6-8.6-8.6-22.6,0-31.1l32.5-32.5
				c4.2-4.2,9.7-6.4,15.6-6.4s11.4,2.3,15.6,6.4l32.5,32.5c8.6,8.6,8.6,22.6,0,31.1l-32.5,32.5C917,508.6,911.4,510.9,905.6,510.9z"
				/>
			<path class="st17" d="M905.6,402.4c5.7,0,11.2,2.2,15.2,6.3l32.5,32.5c8.4,8.4,8.4,22,0,30.4l-32.5,32.5
				c-4.1,4.1-9.5,6.3-15.2,6.3s-11.2-2.2-15.2-6.3l-32.5-32.5c-8.4-8.4-8.4-22,0-30.4l32.5-32.5
				C894.4,404.6,899.8,402.4,905.6,402.4 M905.6,401.4c-5.8,0-11.5,2.2-15.9,6.6l-32.5,32.5c-8.8,8.8-8.8,23.1,0,31.8l32.5,32.5
				c4.4,4.4,10.2,6.6,15.9,6.6s11.5-2.2,15.9-6.6l32.5-32.5c8.8-8.8,8.8-23.1,0-31.8L921.5,408C917.1,403.6,911.3,401.4,905.6,401.4
				L905.6,401.4z"/>
		</g>
		<text transform="matrix(1 0 0 1 853.48 463.4559)" class="st1 st2 st6">Pending tasks</text>
	</g>
	<g>
		<g>
			<path class="st18" d="M1043.6,510.9c-5.9,0-11.4-2.3-15.6-6.4L995.5,472c-8.6-8.6-8.6-22.6,0-31.1l32.5-32.5
				c4.2-4.2,9.7-6.4,15.6-6.4s11.4,2.3,15.6,6.4l32.5,32.5c8.6,8.6,8.6,22.6,0,31.1l-32.5,32.5
				C1055,508.6,1049.4,510.9,1043.6,510.9z"/>
			<path class="st18" d="M1043.6,402.4c5.7,0,11.2,2.2,15.2,6.3l32.5,32.5c8.4,8.4,8.4,22,0,30.4l-32.5,32.5
				c-4.1,4.1-9.5,6.3-15.2,6.3s-11.2-2.2-15.2-6.3l-32.5-32.5c-8.4-8.4-8.4-22,0-30.4l32.5-32.5
				C1032.4,404.6,1037.8,402.4,1043.6,402.4 M1043.6,401.4c-5.8,0-11.5,2.2-15.9,6.6l-32.5,32.5c-8.8,8.8-8.8,23.1,0,31.8l32.5,32.5
				c4.4,4.4,10.2,6.6,15.9,6.6s11.5-2.2,15.9-6.6l32.5-32.5c8.8-8.8,8.8-23.1,0-31.8l-32.5-32.5
				C1055.1,403.6,1049.3,401.4,1043.6,401.4L1043.6,401.4z"/>
		</g>
		<text transform="matrix(1 0 0 1 1000.8516 463.4559)" class="st1 st2 st10">Completed Tasks</text>
	</g>
	<g>
		<path class="st19" d="M469.6,696.9c-5.9,0-11.4-2.3-15.6-6.4L421.5,658c-8.6-8.6-8.6-22.6,0-31.1l32.5-32.5
			c4.2-4.2,9.7-6.4,15.6-6.4s11.4,2.3,15.6,6.4l32.5,32.5c8.6,8.6,8.6,22.6,0,31.1l-32.5,32.5C481,694.6,475.4,696.9,469.6,696.9z"
			/>
		<path class="st19" d="M469.6,588.4c5.7,0,11.2,2.2,15.2,6.3l32.5,32.5c8.4,8.4,8.4,22,0,30.4l-32.5,32.5
			c-4.1,4.1-9.5,6.3-15.2,6.3s-11.2-2.2-15.2-6.3l-32.5-32.5c-8.4-8.4-8.4-22,0-30.4l32.5-32.5C458.4,590.6,463.8,588.4,469.6,588.4
			 M469.6,587.4c-5.8,0-11.5,2.2-15.9,6.6l-32.5,32.5c-8.8,8.8-8.8,23.1,0,31.8l32.5,32.5c4.4,4.4,10.2,6.6,15.9,6.6
			s11.5-2.2,15.9-6.6l32.5-32.5c8.8-8.8,8.8-23.1,0-31.8L485.5,594C481.1,589.6,475.3,587.4,469.6,587.4L469.6,587.4z"/>
	</g>
	<text transform="matrix(1 0 0 1 430.3257 649.4559)" class="st1 st2 st3">Sign Up</text>
	<g>
		<polyline class="st20" points="215.6,471.4 215.6,446.4 405.4,446.4 		"/>
		<g>
			<path class="st21" d="M219.3,471.3c0,2.1-1.7,3.8-3.8,3.8s-3.8-1.7-3.8-3.8c0-2.1,1.7-3.8,3.8-3.8S219.3,469.2,219.3,471.3z"/>
		</g>
		<g>
			<path class="st21" d="M405.2,450.2c2.1,0,3.8-1.7,3.8-3.8s-1.7-3.8-3.8-3.8c-2.1,0-3.8,1.7-3.8,3.8S403.2,450.2,405.2,450.2z"/>
		</g>
	</g>
	<g>
		<line class="st20" x1="469.6" y1="518.8" x2="469.6" y2="579.5"/>
		<g>
			<circle class="st21" cx="469.6" cy="518.9" r="3.8"/>
		</g>
	</g>
	<g>
		<line class="st20" x1="534.3" y1="456.4" x2="622.7" y2="456.4"/>
		<g>
			<path class="st21" d="M534.5,460.2c-2.1,0-3.8-1.7-3.8-3.8s1.7-3.8,3.8-3.8c2.1,0,3.8,1.7,3.8,3.8S536.6,460.2,534.5,460.2z"/>
		</g>
		<g>
			<path class="st21" d="M622.5,460.2c2.1,0,3.8-1.7,3.8-3.8s-1.7-3.8-3.8-3.8c-2.1,0-3.8,1.7-3.8,3.8S620.4,460.2,622.5,460.2z"/>
		</g>
	</g>
	<g>
		<line class="st22" x1="860.7" y1="347.4" x2="1083" y2="347.4"/>
		<g>
			<path class="st21" d="M860.9,350.5c-1.7,0-3.1-1.4-3.1-3.1s1.4-3.1,3.1-3.1c1.7,0,3.1,1.4,3.1,3.1S862.6,350.5,860.9,350.5z"/>
		</g>
		<g>
			<circle class="st21" cx="1082.9" cy="347.4" r="3.1"/>
		</g>
	</g>
	<g>
		<line class="st23" x1="1203" y1="346.4" x2="1297.8" y2="346.4"/>
		<g>
			<path class="st21" d="M1203.1,348.8c-1.3,0-2.3-1-2.3-2.3s1-2.3,2.3-2.3s2.3,1,2.3,2.3S1204.4,348.8,1203.1,348.8z"/>
		</g>
		<g>
			<path class="st21" d="M1297.7,348.8c1.3,0,2.3-1,2.3-2.3s-1-2.3-2.3-2.3s-2.3,1-2.3,2.3S1296.4,348.8,1297.7,348.8z"/>
		</g>
	</g>
	<g>
		<polyline class="st20" points="534.3,642.4 687.6,642.4 687.6,522.8 		"/>
		<g>
			<path class="st21" d="M534.5,646.2c-2.1,0-3.8-1.7-3.8-3.8s1.7-3.8,3.8-3.8c2.1,0,3.8,1.7,3.8,3.8S536.6,646.2,534.5,646.2z"/>
		</g>
		<g>
			<circle class="st21" cx="687.6" cy="523" r="3.8"/>
		</g>
	</g>
	<g>
		<polyline class="st24" points="937,411.5 937,317.9 844.5,317.9 		"/>
		<g>
			<path class="st21" d="M939.6,411.4c0,1.4-1.2,2.6-2.6,2.6s-2.6-1.2-2.6-2.6c0-1.4,1.2-2.6,2.6-2.6S939.6,409.9,939.6,411.4z"/>
		</g>
		<g>
			<path class="st21" d="M844.6,315.3c-1.4,0-2.6,1.2-2.6,2.6s1.2,2.6,2.6,2.6c1.4,0,2.6-1.2,2.6-2.6S846,315.3,844.6,315.3z"/>
		</g>
	</g>
	<g>
		<polyline class="st25" points="1499,411.2 1499,306 1395,306 		"/>
		<g>
			<ellipse transform="matrix(0.9239 -0.3827 0.3827 0.9239 -43.1938 604.93)" class="st21" cx="1499" cy="411" rx="2.9" ry="2.9"/>
		</g>
		<g>
			<path class="st21" d="M1395.2,303.1c-1.6,0-2.9,1.3-2.9,2.9s1.3,2.9,2.9,2.9s2.9-1.3,2.9-2.9S1396.8,303.1,1395.2,303.1z"/>
		</g>
	</g>
	<g>
		<polyline class="st26" points="840.7,600 941,600 941,500.9 		"/>
		<g>
			<path class="st21" d="M840.9,602.8c-1.5,0-2.8-1.2-2.8-2.8s1.2-2.8,2.8-2.8c1.5,0,2.8,1.2,2.8,2.8S842.4,602.8,840.9,602.8z"/>
		</g>
		<g>
			
				<ellipse transform="matrix(0.9871 -0.1602 0.1602 0.9871 -68.1061 157.2007)" class="st21" cx="941" cy="501" rx="2.8" ry="2.8"/>
		</g>
	</g>
	<g>
		<polyline class="st26" points="751.4,600 651.1,600 651.1,500.9 		"/>
		<g>
			<path class="st21" d="M751.2,597.2c1.5,0,2.8,1.2,2.8,2.8s-1.2,2.8-2.8,2.8c-1.5,0-2.8-1.2-2.8-2.8S749.7,597.2,751.2,597.2z"/>
		</g>
		<g>
			
				<ellipse transform="matrix(0.9871 -0.1602 0.1602 0.9871 -71.8493 110.765)" class="st21" cx="651.1" cy="501" rx="2.8" ry="2.8"/>
		</g>
	</g>
	<g>
		<polyline class="st27" points="1146.3,412.3 1146.3,444 1379.7,444 		"/>
		<g>
			<path class="st21" d="M1143.9,412.4c0-1.3,1.1-2.4,2.4-2.4c1.3,0,2.4,1.1,2.4,2.4c0,1.3-1.1,2.4-2.4,2.4
				C1144.9,414.8,1143.9,413.8,1143.9,412.4z"/>
		</g>
		<g>
			<path class="st21" d="M1379.6,446.4c1.3,0,2.4-1.1,2.4-2.4c0-1.3-1.1-2.4-2.4-2.4c-1.3,0-2.4,1.1-2.4,2.4
				C1377.2,445.3,1378.2,446.4,1379.6,446.4z"/>
		</g>
	</g>
	<g>
		<polyline class="st28" points="647.3,411.4 647.3,322 751.5,322 		"/>
		<g>
			<path class="st21" d="M650,411.3c0,1.5-1.2,2.7-2.7,2.7c-1.5,0-2.7-1.2-2.7-2.7c0-1.5,1.2-2.7,2.7-2.7
				C648.8,408.6,650,409.8,650,411.3z"/>
		</g>
		<g>
			<path class="st21" d="M751.3,324.7c1.5,0,2.7-1.2,2.7-2.7s-1.2-2.7-2.7-2.7c-1.5,0-2.7,1.2-2.7,2.7S749.8,324.7,751.3,324.7z"/>
		</g>
	</g>
	<g>
		<line class="st20" x1="752.5" y1="456.4" x2="838" y2="456.4"/>
		<g>
			<path class="st21" d="M752.6,460.2c-2.1,0-3.8-1.7-3.8-3.8s1.7-3.8,3.8-3.8c2.1,0,3.8,1.7,3.8,3.8S754.7,460.2,752.6,460.2z"/>
		</g>
		<g>
			<circle class="st21" cx="837.8" cy="456.4" r="3.8"/>
		</g>
	</g>
	<g>
		<line class="st20" x1="795.2" y1="413.6" x2="795.2" y2="499.2"/>
		<g>
			<path class="st21" d="M791.5,413.8c0-2.1,1.7-3.8,3.8-3.8s3.8,1.7,3.8,3.8c0,2.1-1.7,3.8-3.8,3.8S791.5,415.9,791.5,413.8z"/>
		</g>
		<g>
			<path class="st21" d="M791.5,499c0,2.1,1.7,3.8,3.8,3.8s3.8-1.7,3.8-3.8c0-2.1-1.7-3.8-3.8-3.8S791.5,496.9,791.5,499z"/>
		</g>
	</g>
	<g>
		<polyline class="st29" points="1646.6,370.7 1646.6,248 687.6,248 687.6,392.5 		"/>
		<g>
			<path class="st21" d="M1650.2,370.5c0,2-1.6,3.6-3.6,3.6s-3.6-1.6-3.6-3.6c0-2,1.6-3.6,3.6-3.6S1650.2,368.5,1650.2,370.5z"/>
		</g>
		<g>
			<path class="st21" d="M683.9,392.4c0,2,1.6,3.6,3.6,3.6s3.6-1.6,3.6-3.6c0-2-1.6-3.6-3.6-3.6S683.9,390.4,683.9,392.4z"/>
		</g>
	</g>
	<g>
		<polyline class="st20" points="1356.6,631.1 1356.6,642.4 1646.6,642.4 1646.6,505 		"/>
		<g>
			<circle class="st21" cx="1356.6" cy="631.3" r="3.8"/>
		</g>
		<g>
			<path class="st21" d="M1650.3,505.2c0-2.1-1.7-3.8-3.8-3.8s-3.8,1.7-3.8,3.8c0,2.1,1.7,3.8,3.8,3.8S1650.3,507.2,1650.3,505.2z"
				/>
		</g>
	</g>
	<g>
		<polyline class="st20" points="1583.2,435.4 1546.3,435.4 1546.3,494.4 		"/>
		<g>
			<circle class="st21" cx="1583" cy="435.4" r="3.8"/>
		</g>
		<g>
			<path class="st21" d="M1542.6,494.2c0,2.1,1.7,3.8,3.8,3.8s3.8-1.7,3.8-3.8c0-2.1-1.7-3.8-3.8-3.8S1542.6,492.2,1542.6,494.2z"/>
		</g>
	</g>
	<g>
		<polyline class="st20" points="1550.1,623.5 1550.1,739.5 366.5,739.5 366.5,446.4 		"/>
		<g>
			<path class="st21" d="M1546.3,623.7c0-2.1,1.7-3.8,3.8-3.8s3.8,1.7,3.8,3.8c0,2.1-1.7,3.8-3.8,3.8S1546.3,625.8,1546.3,623.7z"/>
		</g>
	</g>
	<g>
		<polyline class="st30" points="1317.8,523.5 972,523.5 972,347.4 		"/>
		<g>
			<circle class="st21" cx="1317.6" cy="523.5" r="2.9"/>
		</g>
	</g>
	<g>
		<line class="st26" x1="1182.2" y1="384.5" x2="1182.2" y2="542.8"/>
		<g>
			
				<ellipse transform="matrix(0.1602 -0.9871 0.9871 0.1602 613.1664 1490.0111)" class="st21" cx="1182.2" cy="384.7" rx="2.8" ry="2.8"/>
		</g>
		<g>
			<circle class="st21" cx="1182.2" cy="542.7" r="2.8"/>
		</g>
	</g>
	<g>
		<polyline class="st26" points="1098.9,559.7 905.6,559.7 905.6,519.2 		"/>
		<g>
			<path class="st21" d="M1098.7,556.9c1.5,0,2.8,1.2,2.8,2.8c0,1.5-1.2,2.8-2.8,2.8c-1.5,0-2.8-1.2-2.8-2.8
				C1096,558.1,1097.2,556.9,1098.7,556.9z"/>
		</g>
		<g>
			<path class="st21" d="M908.3,519.4c0-1.5-1.2-2.8-2.8-2.8s-2.8,1.2-2.8,2.8c0,1.5,1.2,2.8,2.8,2.8S908.3,520.9,908.3,519.4z"/>
		</g>
	</g>
	<g>
		<polyline class="st27" points="1448.9,500.6 1448.9,686 796.6,686 796.6,628.8 		"/>
		<g>
			<path class="st21" d="M1446.5,500.7c0-1.3,1.1-2.4,2.4-2.4s2.4,1.1,2.4,2.4c0,1.3-1.1,2.4-2.4,2.4S1446.5,502,1446.5,500.7z"/>
		</g>
		<g>
			<path class="st21" d="M799,628.9c0-1.3-1.1-2.4-2.4-2.4s-2.4,1.1-2.4,2.4s1.1,2.4,2.4,2.4S799,630.3,799,628.9z"/>
		</g>
	</g>
	<g>
		<polyline class="st26" points="1260.6,560.3 1260.6,460.8 1111.1,460.8 		"/>
		<g>
			<path class="st21" d="M1263.3,560.2c0,1.5-1.2,2.8-2.8,2.8s-2.8-1.2-2.8-2.8c0-1.5,1.2-2.8,2.8-2.8S1263.3,558.7,1263.3,560.2z"
				/>
		</g>
		<g>
			<circle class="st21" cx="1111.2" cy="460.8" r="2.8"/>
		</g>
	</g>
	<g>
		<polyline class="st22" points="1008,411 1008,377.4 845,377.4 		"/>
		<g>
			<path class="st21" d="M1011.1,410.8c0,1.7-1.4,3.1-3.1,3.1s-3.1-1.4-3.1-3.1c0-1.7,1.4-3.1,3.1-3.1S1011.1,409.1,1011.1,410.8z"
				/>
		</g>
		<g>
			<path class="st21" d="M845.1,374.2c-1.7,0-3.1,1.4-3.1,3.1c0,1.7,1.4,3.1,3.1,3.1c1.7,0,3.1-1.4,3.1-3.1
				C848.3,375.6,846.9,374.2,845.1,374.2z"/>
		</g>
	</g>
</g>
</svg>
