<?xml version="1.0" encoding="UTF-8"?><svg id="a" xmlns="http://www.w3.org/2000/svg" viewBox="0 0 2217 1142"><defs><style>.b{fill:#ff5a39;}.c{fill:#51e5b4;}.d{stroke-width:1.19px;}.d,.e,.f,.g,.h,.i,.j,.k,.l,.m,.n{fill:none;stroke:#6ca4ff;stroke-miterlimit:10;}.o{fill:#fff;}.e{stroke-width:1.01px;}.f{stroke-width:.89px;}.p{fill:#31f5ff;}.g{stroke-width:1.1px;}.q{fill:#ff9e6e;}.h{stroke-width:1.42px;}.i{stroke-width:1.1px;}.r{fill:#ff8366;}.s{fill:#15ffbc;}.t{fill:#ffa6c8;}.u{fill:#6ca4ff;}.v{fill:#95ff50;}.j{stroke-width:.92px;}.w{fill:#eea9ff;}.k{stroke-width:1.19px;}.x{font-size:25.59px;}.x,.y,.a`{fill:#3f3f3f;font-family:MyriadPro-Regular, Myriad Pro;}.aa{fill:#b4f766;}.l{stroke-width:1.05px;}.ab{fill:#f9bb7d;}.y{font-size:17.06px;}.ac{fill:#7ceafc;}.m{stroke-width:1.37px;}.n{stroke-width:.98px;}.ad{fill:#333;font-family:PaladinsCondensed, Paladins Condensed;font-size:60px;}.ae{fill:#f7e60f;}.af{fill:#64f9b2;}.ag{fill:#f2ff55;}.a`{font-size:34.11px;}</style></defs><rect class="o" width="2217" height="1142"/><g><g><path class="c" d="M94.74,766.61c-8.36,0-16.22-3.26-22.13-9.17l-46.2-46.2c-12.2-12.2-12.2-32.06,0-44.26l46.2-46.2c5.91-5.91,13.77-9.17,22.13-9.17s16.22,3.26,22.13,9.17l46.2,46.2c12.2,12.2,12.2,32.06,0,44.26l-46.2,46.2c-5.91,5.91-13.77,9.17-22.13,9.17Z"/><path class="c" d="M94.74,612.34c8.17,0,15.85,3.18,21.63,8.96l46.2,46.2c11.93,11.93,11.93,31.33,0,43.26l-46.2,46.2c-5.78,5.78-13.46,8.96-21.63,8.96s-15.85-3.18-21.63-8.96l-46.2-46.2c-11.93-11.93-11.93-31.33,0-43.26l46.2-46.2c5.78-5.78,13.46-8.96,21.63-8.96m0-1.42c-8.19,0-16.38,3.13-22.63,9.38l-46.2,46.2c-12.5,12.5-12.5,32.77,0,45.27l46.2,46.2c6.25,6.25,14.44,9.38,22.63,9.38s16.38-3.13,22.63-9.38l46.2-46.2c12.5-12.5,12.5-32.77,0-45.27l-46.2-46.2c-6.25-6.25-14.44-9.38-22.63-9.38h0Z"/></g><text class="a`" transform="translate(36.73 699.13)"><tspan x="0" y="0">Loading</tspan></text><g><g><path class="ac" d="M455.78,650.06c-8.36,0-16.22-3.26-22.13-9.17l-46.2-46.2c-12.2-12.2-12.2-32.06,0-44.26l46.2-46.2c5.91-5.91,13.77-9.17,22.13-9.17s16.22,3.26,22.13,9.17l46.2,46.2c12.2,12.2,12.2,32.06,0,44.26l-46.2,46.2c-5.91,5.91-13.77,9.17-22.13,9.17Z"/><path class="ac" d="M455.78,495.78c8.17,0,15.85,3.18,21.63,8.96l46.2,46.2c11.93,11.93,11.93,31.33,0,43.26l-46.2,46.2c-5.78,5.78-13.46,8.96-21.63,8.96s-15.85-3.18-21.63-8.96l-46.2-46.2c-11.93-11.93-11.93-31.33,0-43.26l46.2-46.2c5.78-5.78,13.46-8.96,21.63-8.96m0-1.42c-8.19,0-16.38,3.13-22.63,9.38l-46.2,46.2c-12.5,12.5-12.5,32.77,0,45.27l46.2,46.2c6.25,6.25,14.44,9.38,22.63,9.38s16.38-3.13,22.63-9.38l46.2-46.2c12.5-12.5,12.5-32.77,0-45.27l-46.2-46.2c-6.25-6.25-14.44-9.38-22.63-9.38h0Z"/></g><text class="a`" transform="translate(412 582.58)"><tspan x="0" y="0">Log in</tspan></text></g><g><g><path class="ac" d="M2128.79,621.63c-8.36,0-16.22-3.26-22.13-9.17l-46.2-46.2c-12.2-12.2-12.2-32.06,0-44.26l46.2-46.2c5.91-5.91,13.77-9.17,22.13-9.17s16.22,3.26,22.13,9.17l46.2,46.2c12.2,12.2,12.2,32.06,0,44.26l-46.2,46.2c-5.91,5.91-13.77,9.17-22.13,9.17Z"/><path class="ac" d="M2128.79,467.35c8.17,0,15.85,3.18,21.63,8.96l46.2,46.2c11.93,11.93,11.93,31.33,0,43.26l-46.2,46.2c-5.78,5.78-13.46,8.96-21.63,8.96s-15.85-3.18-21.63-8.96l-46.2-46.2c-11.93-11.93-11.93-31.33,0-43.26l46.2-46.2c5.78-5.78,13.46-8.96,21.63-8.96m0-1.42c-8.19,0-16.38,3.13-22.63,9.38l-46.2,46.2c-12.5,12.5-12.5,32.77,0,45.27l46.2,46.2c6.25,6.25,14.44,9.38,22.63,9.38s16.38-3.13,22.63-9.38l46.2-46.2c12.5-12.5,12.5-32.77,0-45.27l-46.2-46.2c-6.25-6.25-14.44-9.38-22.63-9.38h0Z"/></g><text class="a`" transform="translate(2083.73 554.15)"><tspan x="0" y="0">Profle</tspan></text></g><g><g><path class="af" d="M765.65,650.06c-8.36,0-16.22-3.26-22.13-9.17l-46.2-46.2c-12.2-12.2-12.2-32.06,0-44.26l46.2-46.2c5.91-5.91,13.77-9.17,22.13-9.17s16.22,3.26,22.13,9.17l46.2,46.2c12.2,12.2,12.2,32.06,0,44.26l-46.2,46.2c-5.91,5.91-13.77,9.17-22.13,9.17Z"/><path class="af" d="M765.65,495.78c8.17,0,15.85,3.18,21.63,8.96l46.2,46.2c11.93,11.93,11.93,31.33,0,43.26l-46.2,46.2c-5.78,5.78-13.46,8.96-21.63,8.96s-15.85-3.18-21.63-8.96l-46.2-46.2c-11.93-11.93-11.93-31.33,0-43.26l46.2-46.2c5.78-5.78,13.46-8.96,21.63-8.96m0-1.42c-8.19,0-16.38,3.13-22.63,9.38l-46.2,46.2c-12.5,12.5-12.5,32.77,0,45.27l46.2,46.2c6.25,6.25,14.44,9.38,22.63,9.38s16.38-3.13,22.63-9.38l46.2-46.2c12.5-12.5,12.5-32.77,0-45.27l-46.2-46.2c-6.25-6.25-14.44-9.38-22.63-9.38h0Z"/></g><text class="x" transform="translate(707.06 582.58)"><tspan x="0" y="0">Dashboard</tspan></text></g><g><g><path class="r" d="M920.59,804.99c-8.36,0-16.22-3.26-22.13-9.17l-46.2-46.2c-12.2-12.2-12.2-32.06,0-44.26l46.2-46.2c5.91-5.91,13.77-9.17,22.13-9.17s16.22,3.26,22.13,9.17l46.2,46.2c12.2,12.2,12.2,32.06,0,44.26l-46.2,46.2c-5.91,5.91-13.77,9.17-22.13,9.17Z"/><path class="r" d="M920.59,650.71c8.17,0,15.85,3.18,21.63,8.96l46.2,46.2c11.93,11.93,11.93,31.33,0,43.26l-46.2,46.2c-5.78,5.78-13.46,8.96-21.63,8.96s-15.85-3.18-21.63-8.96l-46.2-46.2c-11.93-11.93-11.93-31.33,0-43.26l46.2-46.2c5.78-5.78,13.46-8.96,21.63-8.96m0-1.42c-8.19,0-16.38,3.13-22.63,9.38l-46.2,46.2c-12.5,12.5-12.5,32.77,0,45.27l46.2,46.2c6.25,6.25,14.44,9.38,22.63,9.38s16.38-3.13,22.63-9.38l46.2-46.2c12.5-12.5,12.5-32.77,0-45.27l-46.2-46.2c-6.25-6.25-14.44-9.38-22.63-9.38h0Z"/></g><text class="x" transform="translate(844.08 737.51)"><tspan x="0" y="0">Cancelled task</tspan></text></g><g><g><path class="aa" d="M920.59,495.12c-8.36,0-16.22-3.26-22.13-9.17l-46.2-46.2c-12.2-12.2-12.2-32.06,0-44.26l46.2-46.2c5.91-5.91,13.77-9.17,22.13-9.17s16.22,3.26,22.13,9.17l46.2,46.2c12.2,12.2,12.2,32.06,0,44.26l-46.2,46.2c-5.91,5.91-13.77,9.17-22.13,9.17Z"/><path class="aa" d="M920.59,340.84c8.17,0,15.85,3.18,21.63,8.96l46.2,46.2c11.93,11.93,11.93,31.33,0,43.26l-46.2,46.2c-5.78,5.78-13.46,8.96-21.63,8.96s-15.85-3.18-21.63-8.96l-46.2-46.2c-11.93-11.93-11.93-31.33,0-43.26l46.2-46.2c5.78-5.78,13.46-8.96,21.63-8.96m0-1.42c-8.19,0-16.38,3.13-22.63,9.38l-46.2,46.2c-12.5,12.5-12.5,32.77,0,45.27l46.2,46.2c6.25,6.25,14.44,9.38,22.63,9.38s16.38-3.13,22.63-9.38l46.2-46.2c12.5-12.5,12.5-32.77,0-45.27l-46.2-46.2c-6.25-6.25-14.44-9.38-22.63-9.38h0Z"/></g><text class="x" transform="translate(892.75 427.64)"><tspan x="0" y="0">Tasks</tspan></text></g><g><g><path class="ae" d="M1416.66,495.12c-8.36,0-16.22-3.26-22.13-9.17l-46.2-46.2c-12.2-12.2-12.2-32.06,0-44.26l46.2-46.2c5.91-5.91,13.77-9.17,22.13-9.17s16.22,3.26,22.13,9.17l46.2,46.2c12.2,12.2,12.2,32.06,0,44.26l-46.2,46.2c-5.91,5.91-13.77,9.17-22.13,9.17Z"/><path class="ae" d="M1416.66,340.84c8.17,0,15.85,3.18,21.63,8.96l46.2,46.2c11.93,11.93,11.93,31.33,0,43.26l-46.2,46.2c-5.78,5.78-13.46,8.96-21.63,8.96s-15.85-3.18-21.63-8.96l-46.2-46.2c-11.93-11.93-11.93-31.33,0-43.26l46.2-46.2c5.78-5.78,13.46-8.96,21.63-8.96m0-1.42c-8.19,0-16.38,3.13-22.63,9.38l-46.2,46.2c-12.5,12.5-12.5,32.77,0,45.27l46.2,46.2c6.25,6.25,14.44,9.38,22.63,9.38s16.38-3.13,22.63-9.38l46.2-46.2c12.5-12.5,12.5-32.77,0-45.27l-46.2-46.2c-6.25-6.25-14.44-9.38-22.63-9.38h0Z"/></g><text class="y" transform="translate(1375.37 427.64)"><tspan x="0" y="0">Task Details</tspan></text></g><g><g><path class="ag" d="M1580.13,888.86c-8.36,0-16.22-3.26-22.13-9.17l-46.2-46.2c-12.2-12.2-12.2-32.06,0-44.26l46.2-46.2c5.91-5.91,13.77-9.17,22.13-9.17s16.22,3.26,22.13,9.17l46.2,46.2c12.2,12.2,12.2,32.06,0,44.26l-46.2,46.2c-5.91,5.91-13.77,9.17-22.13,9.17Z"/><path class="ag" d="M1580.13,734.58c8.17,0,15.85,3.18,21.63,8.96l46.2,46.2c11.93,11.93,11.93,31.33,0,43.26l-46.2,46.2c-5.78,5.78-13.46,8.96-21.63,8.96s-15.85-3.18-21.63-8.96l-46.2-46.2c-11.93-11.93-11.93-31.33,0-43.26l46.2-46.2c5.78-5.78,13.46-8.96,21.63-8.96m0-1.42c-8.19,0-16.38,3.13-22.63,9.38l-46.2,46.2c-12.5,12.5-12.5,32.77,0,45.27l46.2,46.2c6.25,6.25,14.44,9.38,22.63,9.38s16.38-3.13,22.63-9.38l46.2-46.2c12.5-12.5,12.5-32.77,0-45.27l-46.2-46.2c-6.25-6.25-14.44-9.38-22.63-9.38h0Z"/></g><text class="y" transform="translate(1543.73 821.38)"><tspan x="0" y="0">Task Done</tspan></text></g><g><g><path class="w" d="M1416.66,836.26c-8.36,0-16.22-3.26-22.13-9.17l-46.2-46.2c-12.2-12.2-12.2-32.06,0-44.26l46.2-46.2c5.91-5.91,13.77-9.17,22.13-9.17s16.22,3.26,22.13,9.17l46.2,46.2c12.2,12.2,12.2,32.06,0,44.26l-46.2,46.2c-5.91,5.91-13.77,9.17-22.13,9.17Z"/><path class="w" d="M1416.66,681.99c8.17,0,15.85,3.18,21.63,8.96l46.2,46.2c11.93,11.93,11.93,31.33,0,43.26l-46.2,46.2c-5.78,5.78-13.46,8.96-21.63,8.96s-15.85-3.18-21.63-8.96l-46.2-46.2c-11.93-11.93-11.93-31.33,0-43.26l46.2-46.2c5.78-5.78,13.46-8.96,21.63-8.96m0-1.42c-8.19,0-16.38,3.13-22.63,9.38l-46.2,46.2c-12.5,12.5-12.5,32.77,0,45.27l46.2,46.2c6.25,6.25,14.44,9.38,22.63,9.38s16.38-3.13,22.63-9.38l46.2-46.2c12.5-12.5,12.5-32.77,0-45.27l-46.2-46.2c-6.25-6.25-14.44-9.38-22.63-9.38h0Z"/></g><text class="y" transform="translate(1363.91 768.78)"><tspan x="0" y="0">Tasks in Queue</tspan></text></g><g><g><path class="v" d="M1716.58,495.12c-8.36,0-16.22-3.26-22.13-9.17l-46.2-46.2c-12.2-12.2-12.2-32.06,0-44.26l46.2-46.2c5.91-5.91,13.77-9.17,22.13-9.17s16.22,3.26,22.13,9.17l46.2,46.2c12.2,12.2,12.2,32.06,0,44.26l-46.2,46.2c-5.91,5.91-13.77,9.17-22.13,9.17Z"/><path class="v" d="M1716.58,340.84c8.17,0,15.85,3.18,21.63,8.96l46.2,46.2c11.93,11.93,11.93,31.33,0,43.26l-46.2,46.2c-5.78,5.78-13.46,8.96-21.63,8.96s-15.85-3.18-21.63-8.96l-46.2-46.2c-11.93-11.93-11.93-31.33,0-43.26l46.2-46.2c5.78-5.78,13.46-8.96,21.63-8.96m0-1.42c-8.19,0-16.38,3.13-22.63,9.38l-46.2,46.2c-12.5,12.5-12.5,32.77,0,45.27l46.2,46.2c6.25,6.25,14.44,9.38,22.63,9.38s16.38-3.13,22.63-9.38l46.2-46.2c12.5-12.5,12.5-32.77,0-45.27l-46.2-46.2c-6.25-6.25-14.44-9.38-22.63-9.38h0Z"/></g><text class="y" transform="translate(1673.29 427.64)"><tspan x="0" y="0">Task Update</tspan></text></g><g><g><path class="q" d="M1716.58,800.73c-8.36,0-16.22-3.26-22.13-9.17l-46.2-46.2c-12.2-12.2-12.2-32.06,0-44.26l46.2-46.2c5.91-5.91,13.77-9.17,22.13-9.17s16.22,3.26,22.13,9.17l46.2,46.2c12.2,12.2,12.2,32.06,0,44.26l-46.2,46.2c-5.91,5.91-13.77,9.17-22.13,9.17Z"/><path class="q" d="M1716.58,646.45c8.17,0,15.85,3.18,21.63,8.96l46.2,46.2c11.93,11.93,11.93,31.33,0,43.26l-46.2,46.2c-5.78,5.78-13.46,8.96-21.63,8.96s-15.85-3.18-21.63-8.96l-46.2-46.2c-11.93-11.93-11.93-31.33,0-43.26l46.2-46.2c5.78-5.78,13.46-8.96,21.63-8.96m0-1.42c-8.19,0-16.38,3.13-22.63,9.38l-46.2,46.2c-12.5,12.5-12.5,32.77,0,45.27l46.2,46.2c6.25,6.25,14.44,9.38,22.63,9.38s16.38-3.13,22.63-9.38l46.2-46.2c12.5-12.5,12.5-32.77,0-45.27l-46.2-46.2c-6.25-6.25-14.44-9.38-22.63-9.38h0Z"/></g><text class="y" transform="translate(1664.13 733.25)"><tspan x="0" y="0" xml:space="preserve">Profle  Update</tspan></text></g><g><g><path class="b" d="M1843.8,622.34c-8.36,0-16.22-3.26-22.13-9.17l-46.2-46.2c-12.2-12.2-12.2-32.06,0-44.26l46.2-46.2c5.91-5.91,13.77-9.17,22.13-9.17s16.22,3.26,22.13,9.17l46.2,46.2c12.2,12.2,12.2,32.06,0,44.26l-46.2,46.2c-5.91,5.91-13.77,9.17-22.13,9.17Z"/><path class="b" d="M1843.8,468.06c8.17,0,15.85,3.18,21.63,8.96l46.2,46.2c11.93,11.93,11.93,31.33,0,43.26l-46.2,46.2c-5.78,5.78-13.46,8.96-21.63,8.96s-15.85-3.18-21.63-8.96l-46.2-46.2c-11.93-11.93-11.93-31.33,0-43.26l46.2-46.2c5.78-5.78,13.46-8.96,21.63-8.96m0-1.42c-8.19,0-16.38,3.13-22.63,9.38l-46.2,46.2c-12.5,12.5-12.5,32.77,0,45.27l46.2,46.2c6.25,6.25,14.44,9.38,22.63,9.38s16.38-3.13,22.63-9.38l46.2-46.2c12.5-12.5,12.5-32.77,0-45.27l-46.2-46.2c-6.25-6.25-14.44-9.38-22.63-9.38h0Z"/></g><text class="y" transform="translate(1803.49 554.86)"><tspan x="0" y="0">Task Delete</tspan></text></g><g><g><path class="t" d="M1991.63,791.49c-8.36,0-16.22-3.26-22.13-9.17l-46.2-46.2c-12.2-12.2-12.2-32.06,0-44.26l46.2-46.2c5.91-5.91,13.77-9.17,22.13-9.17s16.22,3.26,22.13,9.17l46.2,46.2c12.2,12.2,12.2,32.06,0,44.26l-46.2,46.2c-5.91,5.91-13.77,9.17-22.13,9.17Z"/><path class="t" d="M1991.63,637.21c8.17,0,15.85,3.18,21.63,8.96l46.2,46.2c11.93,11.93,11.93,31.33,0,43.26l-46.2,46.2c-5.78,5.78-13.46,8.96-21.63,8.96s-15.85-3.18-21.63-8.96l-46.2-46.2c-11.93-11.93-11.93-31.33,0-43.26l46.2-46.2c5.78-5.78,13.46-8.96,21.63-8.96m0-1.42c-8.19,0-16.38,3.13-22.63,9.38l-46.2,46.2c-12.5,12.5-12.5,32.77,0,45.27l46.2,46.2c6.25,6.25,14.44,9.38,22.63,9.38s16.38-3.13,22.63-9.38l46.2-46.2c12.5-12.5,12.5-32.77,0-45.27l-46.2-46.2c-6.25-6.25-14.44-9.38-22.63-9.38h0Z"/></g><text class="y" transform="translate(1964.26 724.01)"><tspan x="0" y="0" xml:space="preserve"> Logout</tspan></text></g><g><g><path class="p" d="M1075.52,650.06c-8.36,0-16.22-3.26-22.13-9.17l-46.2-46.2c-12.2-12.2-12.2-32.06,0-44.26l46.2-46.2c5.91-5.91,13.77-9.17,22.13-9.17s16.22,3.26,22.13,9.17l46.2,46.2c12.2,12.2,12.2,32.06,0,44.26l-46.2,46.2c-5.91,5.91-13.77,9.17-22.13,9.17Z"/><path class="p" d="M1075.52,495.78c8.17,0,15.85,3.18,21.63,8.96l46.2,46.2c11.93,11.93,11.93,31.33,0,43.26l-46.2,46.2c-5.78,5.78-13.46,8.96-21.63,8.96s-15.85-3.18-21.63-8.96l-46.2-46.2c-11.93-11.93-11.93-31.33,0-43.26l46.2-46.2c5.78-5.78,13.46-8.96,21.63-8.96m0-1.42c-8.19,0-16.38,3.13-22.63,9.38l-46.2,46.2c-12.5,12.5-12.5,32.77,0,45.27l46.2,46.2c6.25,6.25,14.44,9.38,22.63,9.38s16.38-3.13,22.63-9.38l46.2-46.2c12.5-12.5,12.5-32.77,0-45.27l-46.2-46.2c-6.25-6.25-14.44-9.38-22.63-9.38h0Z"/></g><text class="x" transform="translate(1001.82 582.58)"><tspan x="0" y="0">Pending tasks</tspan></text></g><g><g><path class="s" d="M1271.68,650.06c-8.36,0-16.22-3.26-22.13-9.17l-46.2-46.2c-12.2-12.2-12.2-32.06,0-44.26l46.2-46.2c5.91-5.91,13.77-9.17,22.13-9.17s16.22,3.26,22.13,9.17l46.2,46.2c12.2,12.2,12.2,32.06,0,44.26l-46.2,46.2c-5.91,5.91-13.77,9.17-22.13,9.17Z"/><path class="s" d="M1271.68,495.78c8.17,0,15.85,3.18,21.63,8.96l46.2,46.2c11.93,11.93,11.93,31.33,0,43.26l-46.2,46.2c-5.78,5.78-13.46,8.96-21.63,8.96s-15.85-3.18-21.63-8.96l-46.2-46.2c-11.93-11.93-11.93-31.33,0-43.26l46.2-46.2c5.78-5.78,13.46-8.96,21.63-8.96m0-1.42c-8.19,0-16.38,3.13-22.63,9.38l-46.2,46.2c-12.5,12.5-12.5,32.77,0,45.27l46.2,46.2c6.25,6.25,14.44,9.38,22.63,9.38s16.38-3.13,22.63-9.38l46.2-46.2c12.5-12.5,12.5-32.77,0-45.27l-46.2-46.2c-6.25-6.25-14.44-9.38-22.63-9.38h0Z"/></g><text class="y" transform="translate(1211.67 582.58)"><tspan x="0" y="0">Completed Tasks</tspan></text></g><g><path class="ab" d="M455.78,914.44c-8.36,0-16.22-3.26-22.13-9.17l-46.2-46.2c-12.2-12.2-12.2-32.06,0-44.26l46.2-46.2c5.91-5.91,13.77-9.17,22.13-9.17s16.22,3.26,22.13,9.17l46.2,46.2c12.2,12.2,12.2,32.06,0,44.26l-46.2,46.2c-5.91,5.91-13.77,9.17-22.13,9.17Z"/><path class="ab" d="M455.78,760.16c8.17,0,15.85,3.18,21.63,8.96l46.2,46.2c11.93,11.93,11.93,31.33,0,43.26l-46.2,46.2c-5.78,5.78-13.46,8.96-21.63,8.96s-15.85-3.18-21.63-8.96l-46.2-46.2c-11.93-11.93-11.93-31.33,0-43.26l46.2-46.2c5.78-5.78,13.46-8.96,21.63-8.96m0-1.42c-8.19,0-16.38,3.13-22.63,9.38l-46.2,46.2c-12.5,12.5-12.5,32.77,0,45.27l46.2,46.2c6.25,6.25,14.44,9.38,22.63,9.38s16.38-3.13,22.63-9.38l46.2-46.2c12.5-12.5,12.5-32.77,0-45.27l-46.2-46.2c-6.25-6.25-14.44-9.38-22.63-9.38h0Z"/></g><text class="a`" transform="translate(400.12 846.96)"><tspan x="0" y="0">Sign Up</tspan></text><g><polyline class="h" points="94.74 593.94 94.74 558.35 364.63 558.35"/><path class="u" d="M100.08,593.67c0,2.95-2.39,5.34-5.34,5.34s-5.34-2.39-5.34-5.34,2.39-5.34,5.34-5.34,5.34,2.39,5.34,5.34Z"/><path class="u" d="M364.36,563.7c2.95,0,5.34-2.39,5.34-5.34s-2.39-5.34-5.34-5.34-5.34,2.39-5.34,5.34,2.39,5.34,5.34,5.34Z"/></g><g><line class="h" x1="455.78" y1="661.17" x2="455.78" y2="747.52"/><circle class="u" cx="455.78" cy="661.44" r="5.34"/></g><g><line class="h" x1="547.83" y1="572.56" x2="673.46" y2="572.56"/><path class="u" d="M548.1,577.91c-2.95,0-5.34-2.39-5.34-5.34s2.39-5.34,5.34-5.34,5.34,2.39,5.34,5.34-2.39,5.34-5.34,5.34Z"/><path class="u" d="M673.19,577.91c2.95,0,5.34-2.39,5.34-5.34s-2.39-5.34-5.34-5.34-5.34,2.39-5.34,5.34,2.39,5.34,5.34,5.34Z"/></g><g><line class="k" x1="1011.8" y1="417.63" x2="1327.78" y2="417.63"/><path class="u" d="M1012.02,422.09c-2.46,0-4.46-2-4.46-4.46s2-4.46,4.46-4.46,4.46,2,4.46,4.46-2,4.46-4.46,4.46Z"/><circle class="u" cx="1327.55" cy="417.63" r="4.46"/></g><g><line class="f" x1="1498.27" y1="416.21" x2="1633.03" y2="416.21"/><path class="u" d="M1498.44,419.54c-1.84,0-3.33-1.49-3.33-3.33s1.49-3.33,3.33-3.33,3.33,1.49,3.33,3.33-1.49,3.33-3.33,3.33Z"/><path class="u" d="M1632.86,419.54c1.84,0,3.33-1.49,3.33-3.33s-1.49-3.33-3.33-3.33-3.33,1.49-3.33,3.33,1.49,3.33,3.33,3.33Z"/></g><g><polyline class="h" points="547.83 836.95 765.65 836.95 765.65 666.91"/><path class="u" d="M548.1,842.29c-2.95,0-5.34-2.39-5.34-5.34s2.39-5.34,5.34-5.34,5.34,2.39,5.34,5.34-2.39,5.34-5.34,5.34Z"/><circle class="u" cx="765.65" cy="667.18" r="5.34"/></g><g><polyline class="n" points="1120.22 508.71 1120.22 375.62 988.67 375.62"/><path class="u" d="M1123.89,508.52c0,2.03-1.64,3.67-3.67,3.67s-3.67-1.64-3.67-3.67,1.64-3.67,3.67-3.67,3.67,1.64,3.67,3.67Z"/><path class="u" d="M988.86,371.95c-2.03,0-3.67,1.64-3.67,3.67s1.64,3.67,3.67,3.67,3.67-1.64,3.67-3.67-1.64-3.67-3.67-3.67Z"/></g><g><polyline class="i" points="1919.06 508.28 1919.06 358.76 1771.28 358.76"/><circle class="u" cx="1919.06" cy="508.07" r="4.13" transform="translate(-48.35 773.07) rotate(-22.5)"/><path class="u" d="M1771.48,354.64c-2.28,0-4.13,1.85-4.13,4.13s1.85,4.13,4.13,4.13,4.13-1.85,4.13-4.13-1.85-4.13-4.13-4.13Z"/></g><g><polyline class="l" points="983.39 776.66 1125.9 776.66 1125.9 635.79"/><path class="u" d="M983.58,780.6c-2.17,0-3.93-1.76-3.93-3.93s1.76-3.93,3.93-3.93,3.93,1.76,3.93,3.93-1.76,3.93-3.93,3.93Z"/><circle class="u" cx="1125.9" cy="635.99" r="3.93" transform="translate(-87.34 188.56) rotate(-9.22)"/></g><g><polyline class="l" points="856.36 776.66 713.84 776.66 713.84 635.79"/><path class="u" d="M856.17,772.73c2.17,0,3.93,1.76,3.93,3.93s-1.76,3.93-3.93,3.93-3.93-1.76-3.93-3.93,1.76-3.93,3.93-3.93Z"/><circle class="u" cx="713.84" cy="635.99" r="3.93" transform="translate(-92.66 122.56) rotate(-9.22)"/></g><g><polyline class="j" points="1417.69 509.86 1417.69 554.92 1749.48 554.92"/><path class="u" d="M1414.24,510.04c0-1.9,1.54-3.44,3.44-3.44s3.44,1.54,3.44,3.44-1.54,3.44-3.44,3.44-3.44-1.54-3.44-3.44Z"/><path class="u" d="M1749.31,558.36c1.9,0,3.44-1.54,3.44-3.44s-1.54-3.44-3.44-3.44-3.44,1.54-3.44,3.44,1.54,3.44,3.44,3.44Z"/></g><g><polyline class="e" points="708.4 508.58 708.4 381.51 856.48 381.51"/><path class="u" d="M712.21,508.39c0,2.1-1.71,3.81-3.81,3.81s-3.81-1.71-3.81-3.81,1.71-3.81,3.81-3.81,3.81,1.71,3.81,3.81Z"/><path class="u" d="M856.29,385.32c2.1,0,3.81-1.71,3.81-3.81s-1.71-3.81-3.81-3.81-3.81,1.71-3.81,3.81,1.71,3.81,3.81,3.81Z"/></g><g><line class="h" x1="857.9" y1="572.56" x2="979.47" y2="572.56"/><path class="u" d="M858.17,577.91c-2.95,0-5.34-2.39-5.34-5.34s2.39-5.34,5.34-5.34,5.34,2.39,5.34,5.34-2.39,5.34-5.34,5.34Z"/><circle class="u" cx="979.21" cy="572.56" r="5.34"/></g><g><line class="h" x1="918.69" y1="511.78" x2="918.69" y2="633.35"/><path class="u" d="M913.34,512.04c0-2.95,2.39-5.34,5.34-5.34s5.34,2.39,5.34,5.34-2.39,5.34-5.34,5.34-5.34-2.39-5.34-5.34Z"/><path class="u" d="M913.34,633.08c0,2.95,2.39,5.34,5.34,5.34s5.34-2.39,5.34-5.34-2.39-5.34-5.34-5.34-5.34,2.39-5.34,5.34Z"/></g><g><polyline class="m" points="2128.79 450.76 2128.79 276.32 765.65 276.32 765.65 481.78"/><path class="u" d="M2133.96,450.5c0,2.85-2.31,5.17-5.17,5.17s-5.17-2.31-5.17-5.17,2.31-5.17,5.17-5.17,5.17,2.31,5.17,5.17Z"/><path class="u" d="M760.48,481.52c0,2.85,2.31,5.17,5.17,5.17s5.17-2.31,5.17-5.17-2.31-5.17-5.17-5.17-5.17,2.31-5.17,5.17Z"/></g><g><polyline class="h" points="1716.58 820.93 1716.58 836.95 2128.79 836.95 2128.79 641.58"/><circle class="u" cx="1716.58" cy="821.2" r="5.34"/><path class="u" d="M2134.14,641.84c0-2.95-2.39-5.34-5.34-5.34s-5.34,2.39-5.34,5.34,2.39,5.34,5.34,5.34,5.34-2.39,5.34-5.34Z"/></g><g><polyline class="h" points="2038.7 542.75 1986.36 542.75 1986.36 626.6"/><circle class="u" cx="2038.43" cy="542.75" r="5.34"/><path class="u" d="M1981.01,626.33c0,2.95,2.39,5.34,5.34,5.34s5.34-2.39,5.34-5.34-2.39-5.34-5.34-5.34-5.34,2.39-5.34,5.34Z"/></g><g><polyline class="h" points="1991.63 810.07 1991.63 974.95 309.3 974.95 309.3 558.35"/><path class="u" d="M1986.28,810.34c0-2.95,2.39-5.34,5.34-5.34s5.34,2.39,5.34,5.34-2.39,5.34-5.34,5.34-5.34-2.39-5.34-5.34Z"/></g><g><polyline class="g" points="1661.48 667.92 1169.97 667.92 1169.97 417.63"/><circle class="u" cx="1661.28" cy="667.92" r="4.15"/></g><g><line class="l" x1="1468.8" y1="470.38" x2="1468.8" y2="695.39"/><circle class="u" cx="1468.8" cy="470.57" r="3.93" transform="translate(769.03 1845.03) rotate(-80.78)"/><circle class="u" cx="1468.8" cy="695.2" r="3.93"/></g><g><polyline class="l" points="1350.33 719.34 1075.52 719.34 1075.52 661.86"/><path class="u" d="M1350.13,715.41c2.17,0,3.93,1.76,3.93,3.93s-1.76,3.93-3.93,3.93-3.93-1.76-3.93-3.93,1.76-3.93,3.93-3.93Z"/><path class="u" d="M1079.46,662.06c0-2.17-1.76-3.93-3.93-3.93s-3.93,1.76-3.93,3.93,1.76,3.93,3.93,3.93,3.93-1.76,3.93-3.93Z"/></g><g><polyline class="j" points="1847.87 635.33 1847.87 898.95 920.59 898.95 920.59 817.6"/><path class="u" d="M1844.43,635.5c0-1.9,1.54-3.44,3.44-3.44s3.44,1.54,3.44,3.44-1.54,3.44-3.44,3.44-3.44-1.54-3.44-3.44Z"/><path class="u" d="M924.03,817.77c0-1.9-1.54-3.44-3.44-3.44s-3.44,1.54-3.44,3.44,1.54,3.44,3.44,3.44,3.44-1.54,3.44-3.44Z"/></g><g><polyline class="l" points="1580.13 720.27 1580.13 578.75 1367.63 578.75"/><path class="u" d="M1584.06,720.07c0,2.17-1.76,3.93-3.93,3.93s-3.93-1.76-3.93-3.93,1.76-3.93,3.93-3.93,3.93,1.76,3.93,3.93Z"/><circle class="u" cx="1367.83" cy="578.75" r="3.93"/></g><g><polyline class="d" points="1221.15 507.96 1221.15 460.19 989.42 460.19"/><path class="u" d="M1225.61,507.74c0,2.46-2,4.46-4.46,4.46s-4.46-2-4.46-4.46,2-4.46,4.46-4.46,4.46,2,4.46,4.46Z"/><path class="u" d="M989.64,455.73c-2.46,0-4.46,2-4.46,4.46s2,4.46,4.46,4.46,4.46-2,4.46-4.46-2-4.46-4.46-4.46Z"/></g></g><text class="ad" transform="translate(947.16 158.88)"><tspan x="0" y="0">DATA FLOW</tspan></text></svg>